{"title":"Outsiders S01E12 HDTV SWESUB 2016","uid":14317661,"size":440209829,"categoryP":"video","categoryS":"hd___tv_shows","magnet":"?xt=urn:btih:d16de7824d92f5fb52ed0c040c7a7d3b31e5e838&amp;dn=Outsiders+S01E12+HDTV+SWESUB+2016&amp;tr=udp%3A%2F%2Ftracker.leechers-paradise.org%3A6969&amp;tr=udp%3A%2F%2Fzer0day.ch%3A1337&amp;tr=udp%3A%2F%2Fopen.demonii.com%3A1337&amp;tr=udp%3A%2F%2Ftracker.coppersurfer.tk%3A6969&amp;tr=udp%3A%2F%2Fexodus.desync.com%3A6969","seeders":1,"leechers":0,"uploader":"hoyabella","files":1,"time":1460589772,"description":"\n                      Outsiders S01E12 HDTV SWESUB 2016\r\n\r\n\r\n\r\n             http://www.imdb.com/title/tt4816626/?ref_=ttfc_fc_tt\r\n\r\n\r\n\r\n\r\n\r\nGeneral\r\nComplete name               : C:Users___DownloadsOutsiders S01E12 HDTV SWESUB 2016.mp4\r\nFormat                      : MPEG-4\r\nFormat profile              : Base Media\r\nCodec ID                    : isom (isom/iso2/mp41)\r\nFile size                   : 420 MiB\r\nDuration                    : 46mn 25s\r\nOverall bit rate mode       : Variable\r\nOverall bit rate            : 1 264 Kbps\r\nEncoded date                : UTC 2016-04-13 21:09:22\r\nTagged date                 : UTC 2016-04-13 21:09:22\r\nWriting application         : Lavf51.12.1\r\n\r\nVideo\r\nID                          : 1\r\nFormat                      : MPEG-4 Visual\r\nFormat profile              :   \r\nFormat settings, BVOP       : No\r\nFormat settings, QPel       : No\r\nFormat settings, GMC        : No warppoints\r\nFormat settings, Matrix     : Default (H.263)\r\nCodec ID                    : 20\r\nDuration                    : 46mn 25s\r\nBit rate                    : 1 108 Kbps\r\nWidth                       : 720 pixels\r\nHeight                      : 404 pixels\r\nDisplay aspect ratio        : 16:9\r\nFrame rate mode             : Constant\r\nFrame rate                  : 23.976 (24000/1001) fps\r\nColor space                 : YUV\r\nChroma subsampling          : 4:2:0\r\nBit depth                   : 8 bits\r\nScan type                   : Progressive\r\nCompression mode            : Lossy\r\nBits/(Pixel*Frame)          : 0.159\r\nStream size                 : 368 MiB (88%)\r\nWriting library             : Lavc51.40.4\r\nLanguage                    : English\r\nEncoded date                : UTC 2016-04-13 21:09:22\r\nTagged date                 : UTC 2016-04-13 21:09:22\r\n\r\nAudio\r\nID                          : 2\r\nFormat                      : AAC\r\nFormat/Info                 : Advanced Audio Codec\r\nFormat profile              : LC\r\nCodec ID                    : 40\r\nDuration                    : 46mn 25s\r\nBit rate mode               : Variable\r\nBit rate                    : 152 Kbps\r\nChannel(s)                  : 2 channels\r\nChannel positions           : Front: L R\r\nSampling rate               : 44.1 KHz\r\nFrame rate                  : 43.066 fps (1024 spf)\r\nCompression mode            : Lossy\r\nStream size                 : 50.5 MiB (12%)\r\nEncoded date                : UTC 2016-04-13 21:09:22\r\nTagged date                 : UTC 2016-04-13 21:09:22","torrent":{"xt":"urn:btih:d16de7824d92f5fb52ed0c040c7a7d3b31e5e838","amp;dn":"Outsiders+S01E12+HDTV+SWESUB+2016","amp;tr":["udp%3A%2F%2Ftracker.leechers-paradise.org%3A6969","udp%3A%2F%2Fzer0day.ch%3A1337","udp%3A%2F%2Fopen.demonii.com%3A1337","udp%3A%2F%2Ftracker.coppersurfer.tk%3A6969","udp%3A%2F%2Fexodus.desync.com%3A6969"],"infoHash":"d16de7824d92f5fb52ed0c040c7a7d3b31e5e838","infoHashBuffer":{"type":"Buffer","data":[209,109,231,130,77,146,245,251,82,237,12,4,12,122,125,59,49,229,232,56]},"announce":[],"urlList":[]}}